<?xml version="1.0" encoding="UTF-8" standalone="no"?>
<!DOCTYPE svg PUBLIC "-//W3C//DTD SVG 1.1//EN" "http://www.w3.org/Graphics/SVG/1.1/DTD/svg11.dtd">
<svg xmlns="http://www.w3.org/2000/svg" version="1.1" viewBox="0 0 2422 865">
<g>
<path fill="#000000" d="
  M 64.17 142.18
  C 76.78 92.20 118.78 55.58 169.78 49.35
  Q 176.78 48.50 189.75 48.50
  Q 425.82 48.50 661.89 48.50
  Q 662.03 48.50 674.11 48.25
  C 742.55 46.84 797.16 95.60 802.94 164.02
  Q 803.44 169.91 803.45 181.62
  Q 803.67 434.43 803.29 687.25
  Q 803.27 700.03 802.38 707.21
  C 795.08 765.52 749.79 810.26 691.16 816.27
  Q 684.74 816.93 671.20 816.95
  Q 340.02 817.29 185.25 816.72
  C 130.19 816.52 81.82 781.42 65.87 728.81
  C 63.82 722.03 62.35 713.58 60.89 705.83
  Q 60.01 701.21 60.01 696.48
  Q 59.99 437.43 60.00 178.37
  C 60.00 165.08 61.17 154.07 64.17 142.18
  Z
  M 151.96 702.14
  C 156.47 716.93 170.05 726.55 185.51 726.67
  Q 197.90 726.76 210.28 726.77
  C 225.82 726.77 237.95 717.83 242.22 703.09
  Q 243.51 698.66 243.51 691.27
  Q 243.49 434.33 243.51 177.40
  C 243.51 152.99 227.80 138.26 203.65 138.46
  C 194.35 138.53 182.81 137.55 174.82 139.92
  C 163.93 143.17 155.01 152.09 151.89 162.99
  Q 150.50 167.83 150.50 179.65
  Q 150.49 433.37 150.51 687.08
  Q 150.51 697.39 151.96 702.14
  Z
  M 539.47 552.11
  C 551.42 589.62 609.29 550.86 627.82 590.63
  Q 631.67 598.88 631.80 604.00
  Q 632.30 624.34 631.97 692.21
  Q 631.92 703.31 633.38 708.14
  C 636.88 719.69 646.92 726.86 659.29 726.78
  C 668.34 726.72 679.88 727.92 688.18 725.53
  C 705.99 720.43 714.46 703.43 713.82 685.66
  Q 713.50 676.87 713.50 676.83
  Q 713.50 429.64 713.50 182.44
  Q 713.50 169.69 712.00 164.19
  C 708.13 150.03 694.44 138.03 678.46 138.56
  Q 673.12 138.74 673.03 138.74
  Q 619.30 138.76 565.57 138.74
  Q 557.63 138.74 553.61 140.12
  C 531.39 147.75 533.69 180.22 553.33 188.54
  Q 558.47 190.71 570.01 191.27
  C 580.05 191.76 591.42 190.90 600.88 192.37
  C 623.60 195.89 631.94 212.96 631.95 234.50
  Q 632.02 337.20 631.99 439.89
  Q 631.98 451.48 630.69 456.37
  C 626.43 472.56 612.15 483.51 595.51 484.80
  C 575.05 486.38 542.50 478.53 538.24 509.47
  Q 536.38 522.90 537.61 538.73
  Q 538.37 548.66 539.47 552.11
  Z
  M 347.76 439.07
  C 347.77 464.11 356.58 475.31 382.21 475.54
  Q 436.99 476.03 491.76 475.59
  Q 504.03 475.50 509.07 473.89
  C 522.55 469.58 528.00 457.42 528.00 443.00
  Q 528.01 338.71 527.99 234.43
  C 527.99 210.83 516.60 201.13 493.25 201.05
  Q 438.31 200.86 383.38 201.12
  Q 372.03 201.18 367.76 202.43
  C 352.59 206.85 347.81 220.50 347.80 235.00
  Q 347.73 337.03 347.76 439.07
  Z
  M 349.51 704.05
  C 353.77 717.32 365.94 726.24 380.00 726.25
  Q 434.24 726.27 488.47 726.23
  Q 498.23 726.23 502.78 724.92
  C 513.81 721.74 522.91 712.82 526.23 701.91
  Q 527.72 696.99 527.75 685.93
  Q 527.88 624.03 527.67 610.46
  Q 527.32 587.52 508.40 581.87
  Q 503.05 580.27 490.49 580.17
  Q 437.28 579.74 384.09 580.24
  Q 371.45 580.36 366.73 581.94
  C 352.15 586.82 348.06 600.58 348.04 614.75
  Q 347.96 652.21 348.03 689.65
  Q 348.05 699.47 349.51 704.05
  Z"
/>
<path fill="#000000" d="
  M 1123.45 505.09
  A 0.54 0.54 -11.4 0 0 1122.95 504.76
  L 1086.48 504.75
  A 0.74 0.74 0.0 0 0 1085.74 505.49
  L 1085.73 726.21
  A 0.50 0.49 -90.0 0 1 1085.24 726.71
  L 979.75 726.74
  A 0.50 0.50 0.0 0 1 979.25 726.24
  L 979.25 156.74
  A 0.49 0.48 -90.0 0 1 979.73 156.25
  Q 1051.16 156.24 1122.75 156.26
  C 1149.44 156.26 1176.72 160.12 1201.88 169.22
  C 1253.53 187.91 1279.75 229.57 1287.58 282.48
  Q 1292.80 317.81 1288.99 355.75
  C 1283.98 405.69 1262.64 450.07 1218.42 476.32
  A 0.95 0.95 62.7 0 0 1218.04 477.52
  L 1327.07 726.20
  A 0.33 0.33 78.2 0 1 1326.77 726.66
  L 1213.91 726.62
  A 0.73 0.72 -10.5 0 1 1213.23 726.16
  L 1123.45 505.09
  Z
  M 1175.36 281.93
  C 1160.19 244.74 1118.31 248.22 1086.57 248.26
  A 0.82 0.82 90.0 0 0 1085.75 249.08
  L 1085.75 412.95
  A 0.53 0.53 -90.0 0 0 1086.28 413.48
  C 1102.81 413.57 1120.89 414.67 1136.76 410.72
  C 1168.50 402.82 1179.45 375.91 1182.23 346.24
  C 1184.24 324.84 1183.40 301.63 1175.36 281.93
  Z"
/>
<path fill="#000000" d="
  M 1809.49 241.99
  Q 1807.44 241.24 1806.98 243.30
  Q 1752.89 484.71 1699.06 726.21
  A 0.64 0.63 6.2 0 1 1698.44 726.70
  L 1583.17 726.73
  A 0.57 0.56 -6.4 0 1 1582.62 726.30
  L 1474.52 242.30
  A 1.44 1.14 -83.5 0 0 1474.02 241.50
  Q 1472.46 240.36 1470.65 241.26
  A 0.72 0.67 74.1 0 0 1470.28 241.99
  C 1474.66 274.48 1477.48 307.53 1477.48 340.31
  Q 1477.53 533.25 1477.48 726.19
  A 0.51 0.50 -90.0 0 1 1476.98 726.70
  L 1379.49 726.73
  A 0.49 0.49 0.0 0 1 1379.00 726.24
  L 1379.00 156.74
  A 0.49 0.49 0.0 0 1 1379.49 156.25
  L 1541.76 156.25
  A 0.79 0.78 83.5 0 1 1542.52 156.86
  L 1639.72 603.45
  A 1.31 1.01 -85.6 0 0 1640.23 604.23
  Q 1641.30 604.86 1642.50 604.40
  A 1.02 0.86 88.5 0 0 1643.06 603.70
  L 1739.48 157.12
  A 1.11 1.11 -83.8 0 1 1740.56 156.25
  L 1904.76 156.25
  A 0.49 0.49 0.0 0 1 1905.25 156.74
  L 1905.25 726.26
  A 0.49 0.49 0.0 0 1 1904.76 726.75
  L 1804.81 726.75
  A 0.55 0.54 -90.0 0 1 1804.27 726.20
  Q 1804.21 534.50 1804.44 342.81
  Q 1804.51 292.54 1809.83 242.54
  A 0.52 0.52 13.4 0 0 1809.49 241.99
  Z"
/>
<path fill="#000000" d="
  M 2154.93 483.55
  A 0.31 0.30 -32.7 0 0 2154.43 483.45
  L 2112.68 525.20
  A 1.48 1.46 68.0 0 0 2112.24 526.25
  L 2112.23 726.22
  A 0.50 0.49 -0.0 0 1 2111.73 726.71
  L 2006.25 726.74
  A 0.50 0.50 0.0 0 1 2005.75 726.24
  L 2005.75 157.09
  A 0.84 0.83 -90.0 0 1 2006.58 156.25
  L 2111.76 156.25
  A 0.49 0.49 90.0 0 1 2112.25 156.74
  L 2112.25 436.65
  Q 2112.25 438.78 2113.09 436.82
  Q 2130.44 396.63 2148.44 355.87
  Q 2150.34 351.57 2152.41 347.36
  Q 2199.01 252.39 2246.10 156.72
  A 0.84 0.83 -76.9 0 1 2246.85 156.25
  L 2359.30 156.25
  A 0.58 0.58 -76.0 0 1 2359.81 157.10
  L 2228.47 403.04
  A 1.06 1.03 -43.0 0 0 2228.43 403.93
  L 2361.48 726.26
  A 0.35 0.35 -10.5 0 1 2361.16 726.74
  L 2248.76 726.72
  A 0.73 0.73 79.5 0 1 2248.08 726.25
  L 2154.93 483.55
  Z"
/>
</g>
</svg>
